{"title":"Wayward.Pines.Season.2.S02.1080p.WEB-DL.6CH.HEVC.x265-GIRAYS","uid":15437422,"size":3808957907,"categoryP":"video","categoryS":"hd___tv_shows","magnet":"?xt=urn:btih:6cf8c56f0e94ea684b6f8fd9fdaaf308020274b4&amp;dn=Wayward.Pines.Season.2.S02.1080p.WEB-DL.6CH.HEVC.x265-GIRAYS&amp;tr=udp%3A%2F%2Ftracker.leechers-paradise.org%3A6969&amp;tr=udp%3A%2F%2Fzer0day.ch%3A1337&amp;tr=udp%3A%2F%2Fopen.demonii.com%3A1337&amp;tr=udp%3A%2F%2Ftracker.coppersurfer.tk%3A6969&amp;tr=udp%3A%2F%2Fexodus.desync.com%3A6969","seeders":4,"leechers":5,"uploader":"insane86","files":14,"time":1469778957,"description":"Source: Wayward.Pines.S02.1080p.WEB-DL.DD5.1.H264-ViSUM\r\n\r\nScreenshots: \nhttps://postimg.org/image/rmqeuxi6p/ \nhttps://postimg.org/image/pwbz76q1d/ \nhttps://postimg.org/image/srp2e1u1d/\r\n\r\nEnglish subtitles are included.\r\n\r\nGeneral\r\nFormat                      : Matroska\r\nFormat version              : Version 4 / Version 2\r\nFile size                   : 360 MiB\r\nDuration                    : 44mn 51s\r\nOverall bit rate            : 1 122 Kbps\r\nMovie name                  : Wayward.Pines.S02E01.1080p.WEB-DL.DD5.1.H264-RARBG\r\nEncoded date                : UTC 2016-07-25 14:41:42\r\nWriting application         : mkvmerge v9.3.1 ('Mask Machine') 64bit\r\nWriting library             : libebml v1.3.4 + libmatroska v1.4.5\r\n\r\nVideo\r\nID                          : 1\r\nFormat                      : HEVC\r\nFormat/Info                 : High Efficiency Video Coding\r\nFormat profile              :   @Main\r\nCodec ID                    : V_MPEGH/ISO/HEVC\r\nDuration                    : 44mn 51s\r\nBit rate                    : 913 Kbps\r\nWidth                       : 1 920 pixels\r\nHeight                      : 1 080 pixels\r\nDisplay aspect ratio        : 16:9\r\nFrame rate mode             : Constant\r\nFrame rate                  : 23.976 (24000/1001) fps\r\nColor space                 : YUV\r\nChroma subsampling          : 4:2:0\r\nBit depth                   : 8 bits\r\nBits/(Pixel*Frame)          : 0.018\r\nStream size                 : 293 MiB (81%)\r\nDefault                     : Yes\r\nForced                      : No\r\n\r\nAudio\r\nID                          : 2\r\nFormat                      : AAC\r\nFormat/Info                 : Advanced Audio Codec\r\nFormat profile              : HE-AAC / LC\r\nCodec ID                    : A_AAC\r\nDuration                    : 44mn 51s\r\nBit rate                    : 207 Kbps\r\nChannel(s)                  : 6 channels\r\nChannel positions           : Front: L C R, Side: L R, LFE\r\nSampling rate               : 48.0 KHz / 24.0 KHz\r\nFrame rate                  : 23.438 fps (1024 spf)\r\nCompression mode            : Lossy\r\nDelay relative to video     : 40ms\r\nStream size                 : 66.5 MiB (18%)\r\nLanguage                    : English\r\nDefault                     : Yes\r\nForced                      : No\r\n\r\nText\r\nID                          : 3\r\nFormat                      : UTF-8\r\nCodec ID                    : S_TEXT/UTF8\r\nCodec ID/Info               : UTF-8 Plain Text\r\nDuration                    : 43mn 8s\r\nBit rate                    : 50 bps\r\nCount of elements           : 559\r\nStream size                 : 16.0 KiB (0%)\r\nLanguage                    : English\r\nDefault                     : Yes\r\nForced                      : No","torrent":{"xt":"urn:btih:6cf8c56f0e94ea684b6f8fd9fdaaf308020274b4","amp;dn":"Wayward.Pines.Season.2.S02.1080p.WEB-DL.6CH.HEVC.x265-GIRAYS","amp;tr":["udp%3A%2F%2Ftracker.leechers-paradise.org%3A6969","udp%3A%2F%2Fzer0day.ch%3A1337","udp%3A%2F%2Fopen.demonii.com%3A1337","udp%3A%2F%2Ftracker.coppersurfer.tk%3A6969","udp%3A%2F%2Fexodus.desync.com%3A6969"],"infoHash":"6cf8c56f0e94ea684b6f8fd9fdaaf308020274b4","infoHashBuffer":{"type":"Buffer","data":[108,248,197,111,14,148,234,104,75,111,143,217,253,170,243,8,2,2,116,180]},"announce":[],"urlList":[]}}